<?xml version="1.0" encoding="utf-8"?>
<svg viewBox="0 0 500 500" xmlns="http://www.w3.org/2000/svg">
  <path d="M 142.65 180.61 Q 142.65 183.55 141.13 185.9 Q 139.62 188.24 136.7 189.57 Q 133.78 190.9 129.78 190.9 Q 124.98 190.9 121.86 189.08 Q 119.65 187.78 118.26 185.6 Q 116.88 183.42 116.88 181.36 Q 116.88 180.17 117.71 179.32 Q 118.54 178.47 119.82 178.47 Q 120.86 178.47 121.58 179.13 Q 122.3 179.79 122.81 181.1 Q 123.43 182.65 124.15 183.69 Q 124.87 184.73 126.17 185.4 Q 127.48 186.08 129.6 186.08 Q 132.52 186.08 134.34 184.71 Q 136.17 183.35 136.17 181.32 Q 136.17 179.7 135.18 178.7 Q 134.2 177.69 132.64 177.16 Q 131.08 176.63 128.47 176.03 Q 124.98 175.21 122.62 174.12 Q 120.27 173.02 118.88 171.13 Q 117.5 169.24 117.5 166.43 Q 117.5 163.76 118.96 161.68 Q 120.42 159.6 123.18 158.48 Q 125.95 157.36 129.69 157.36 Q 132.67 157.36 134.85 158.11 Q 137.03 158.85 138.47 160.07 Q 139.91 161.3 140.57 162.65 Q 141.23 164 141.23 165.28 Q 141.23 166.46 140.4 167.4 Q 139.58 168.34 138.34 168.34 Q 137.21 168.34 136.62 167.77 Q 136.04 167.21 135.35 165.92 Q 134.47 164.09 133.23 163.06 Q 131.99 162.03 129.25 162.03 Q 126.7 162.03 125.14 163.15 Q 123.58 164.27 123.58 165.84 Q 123.58 166.81 124.11 167.52 Q 124.64 168.22 125.57 168.73 Q 126.5 169.24 127.45 169.53 Q 128.41 169.82 130.59 170.37 Q 133.34 171.01 135.56 171.79 Q 137.78 172.56 139.34 173.67 Q 140.9 174.77 141.78 176.46 Q 142.65 178.16 142.65 180.61 Z M 171.7 180.1 Q 171.7 181.65 170.94 183.45 Q 170.17 185.26 168.54 186.99 Q 166.9 188.73 164.36 189.81 Q 161.81 190.9 158.43 190.9 Q 155.86 190.9 153.76 190.41 Q 151.66 189.92 149.95 188.9 Q 148.23 187.87 146.79 186.19 Q 145.51 184.66 144.6 182.77 Q 143.7 180.88 143.24 178.73 Q 142.79 176.59 142.79 174.17 Q 142.79 170.26 143.93 167.16 Q 145.07 164.07 147.19 161.87 Q 149.32 159.66 152.17 158.51 Q 155.02 157.36 158.25 157.36 Q 162.19 157.36 165.26 158.93 Q 168.34 160.51 169.97 162.82 Q 171.61 165.13 171.61 167.19 Q 171.61 168.31 170.82 169.18 Q 170.02 170.04 168.89 170.04 Q 167.63 170.04 167 169.44 Q 166.37 168.84 165.59 167.38 Q 164.31 164.97 162.58 163.78 Q 160.84 162.58 158.3 162.58 Q 154.25 162.58 151.85 165.66 Q 149.45 168.73 149.45 174.4 Q 149.45 178.18 150.51 180.69 Q 151.57 183.2 153.52 184.44 Q 155.46 185.68 158.07 185.68 Q 160.91 185.68 162.86 184.27 Q 164.82 182.87 165.82 180.15 Q 166.24 178.86 166.86 178.06 Q 167.48 177.25 168.85 177.25 Q 170.02 177.25 170.86 178.07 Q 171.7 178.89 171.7 180.1 Z M 185.48 176.48 L 183.18 176.48 L 183.18 186.89 Q 183.18 188.95 182.27 189.92 Q 181.36 190.9 179.9 190.9 Q 178.33 190.9 177.47 189.88 Q 176.61 188.86 176.61 186.89 L 176.61 161.94 Q 176.61 159.82 177.56 158.87 Q 178.51 157.92 180.63 157.92 L 191.32 157.92 Q 193.53 157.92 195.1 158.11 Q 196.67 158.29 197.93 158.87 Q 199.46 159.51 200.63 160.7 Q 201.8 161.9 202.41 163.48 Q 203.02 165.06 203.02 166.83 Q 203.02 170.46 200.97 172.63 Q 198.93 174.79 194.77 175.7 Q 196.52 176.63 198.11 178.44 Q 199.7 180.26 200.95 182.3 Q 202.2 184.35 202.9 186 Q 203.59 187.65 203.59 188.26 Q 203.59 188.91 203.18 189.54 Q 202.78 190.17 202.07 190.53 Q 201.36 190.9 200.43 190.9 Q 199.33 190.9 198.57 190.38 Q 197.82 189.86 197.28 189.06 Q 196.74 188.26 195.81 186.72 L 193.18 182.34 Q 191.76 179.93 190.64 178.67 Q 189.53 177.4 188.38 176.94 Q 187.23 176.48 185.48 176.48 Z M 189.24 162.85 L 183.18 162.85 L 183.18 171.76 L 189.06 171.76 Q 191.43 171.76 193.04 171.35 Q 194.66 170.95 195.51 169.96 Q 196.36 168.98 196.36 167.25 Q 196.36 165.9 195.68 164.87 Q 194.99 163.85 193.77 163.34 Q 192.62 162.85 189.24 162.85 Z M 229.98 186.67 L 228.43 182.6 L 215.25 182.6 L 213.7 186.76 Q 212.79 189.19 212.15 190.05 Q 211.51 190.9 210.05 190.9 Q 208.81 190.9 207.86 189.99 Q 206.91 189.08 206.91 187.93 Q 206.91 187.27 207.13 186.56 Q 207.35 185.85 207.86 184.59 L 216.16 163.54 Q 216.51 162.63 217.01 161.36 Q 217.51 160.09 218.07 159.24 Q 218.63 158.4 219.55 157.88 Q 220.47 157.36 221.82 157.36 Q 223.19 157.36 224.11 157.88 Q 225.03 158.4 225.59 159.22 Q 226.15 160.04 226.54 160.98 Q 226.93 161.92 227.53 163.49 L 236 184.42 Q 236.99 186.8 236.99 187.89 Q 236.99 189.02 236.05 189.96 Q 235.11 190.9 233.79 190.9 Q 233.01 190.9 232.46 190.62 Q 231.91 190.34 231.53 189.87 Q 231.15 189.39 230.72 188.41 Q 230.29 187.42 229.98 186.67 Z M 216.97 177.67 L 226.66 177.67 L 221.77 164.29 Z M 252.76 185.46 L 247.56 164.8 L 247.56 187.18 Q 247.56 189.04 246.73 189.97 Q 245.91 190.9 244.53 190.9 Q 243.21 190.9 242.37 189.98 Q 241.53 189.06 241.53 187.18 L 241.53 161.52 Q 241.53 159.4 242.63 158.66 Q 243.74 157.92 245.62 157.92 L 247.65 157.92 Q 249.49 157.92 250.32 158.25 Q 251.15 158.58 251.55 159.44 Q 251.94 160.31 252.45 162.25 L 257.16 180.01 L 261.88 162.25 Q 262.38 160.31 262.78 159.44 Q 263.18 158.58 264.01 158.25 Q 264.84 157.92 266.67 157.92 L 268.71 157.92 Q 270.59 157.92 271.7 158.66 Q 272.8 159.4 272.8 161.52 L 272.8 187.18 Q 272.8 189.04 271.97 189.97 Q 271.14 190.9 269.75 190.9 Q 268.44 190.9 267.6 189.97 Q 266.76 189.04 266.76 187.18 L 266.76 164.8 L 261.57 185.46 Q 261.06 187.47 260.74 188.41 Q 260.42 189.35 259.55 190.12 Q 258.69 190.9 257.16 190.9 Q 256.01 190.9 255.22 190.4 Q 254.42 189.9 253.98 189.13 Q 253.54 188.35 253.28 187.41 Q 253.03 186.47 252.76 185.46 Z M 291.5 190.34 L 281.59 190.34 Q 279.44 190.34 278.52 189.38 Q 277.61 188.42 277.61 186.32 L 277.61 161.94 Q 277.61 159.8 278.55 158.86 Q 279.49 157.92 281.59 157.92 L 292.09 157.92 Q 294.42 157.92 296.12 158.2 Q 297.82 158.49 299.17 159.31 Q 300.32 160 301.21 161.05 Q 302.09 162.1 302.56 163.37 Q 303.02 164.64 303.02 166.06 Q 303.02 170.92 298.16 173.18 Q 304.55 175.21 304.55 181.1 Q 304.55 183.82 303.15 186 Q 301.76 188.18 299.39 189.22 Q 297.91 189.84 295.99 190.09 Q 294.06 190.34 291.5 190.34 Z M 291.01 175.94 L 284.18 175.94 L 284.18 185.41 L 291.23 185.41 Q 297.89 185.41 297.89 180.61 Q 297.89 178.16 296.16 177.05 Q 294.44 175.94 291.01 175.94 Z M 284.18 162.85 L 284.18 171.23 L 290.19 171.23 Q 292.65 171.23 293.99 170.77 Q 295.32 170.3 296.03 169 Q 296.58 168.07 296.58 166.92 Q 296.58 164.46 294.84 163.66 Q 293.09 162.85 289.51 162.85 Z M 316.67 161.35 L 316.67 184.95 L 329.98 184.95 Q 331.58 184.95 332.43 185.72 Q 333.28 186.5 333.28 187.67 Q 333.28 188.86 332.44 189.6 Q 331.6 190.34 329.98 190.34 L 314.12 190.34 Q 311.98 190.34 311.04 189.39 Q 310.1 188.44 310.1 186.32 L 310.1 161.35 Q 310.1 159.36 310.99 158.36 Q 311.89 157.36 313.35 157.36 Q 314.83 157.36 315.75 158.35 Q 316.67 159.33 316.67 161.35 Z M 357.66 162.98 L 342.86 162.98 L 342.86 170.95 L 356.49 170.95 Q 357.99 170.95 358.73 171.62 Q 359.48 172.29 359.48 173.4 Q 359.48 174.51 358.75 175.2 Q 358.02 175.9 356.49 175.9 L 342.86 175.9 L 342.86 185.12 L 358.17 185.12 Q 359.72 185.12 360.5 185.84 Q 361.29 186.56 361.29 187.76 Q 361.29 188.91 360.5 189.63 Q 359.72 190.34 358.17 190.34 L 340.32 190.34 Q 338.18 190.34 337.24 189.39 Q 336.29 188.44 336.29 186.32 L 336.29 161.94 Q 336.29 160.53 336.72 159.63 Q 337.14 158.74 338.03 158.33 Q 338.93 157.92 340.32 157.92 L 357.66 157.92 Q 359.23 157.92 360 158.61 Q 360.76 159.31 360.76 160.44 Q 360.76 161.59 360 162.29 Q 359.23 162.98 357.66 162.98 Z" transform="matrix(1.548747, 0, 0, 1.647002, -131.191517, -216.426078)" style="fill: rgb(51, 51, 51);"/>
  <rect style="stroke: rgb(0, 0, 0); fill: none; stroke-width: 8px;" x="9.602" y="13.663" width="477.014" height="111.15" rx="55.6" ry="55.6" transform="matrix(1, 0, 0, 1, 7.105427357601002e-15, 0)"/>
</svg>